<svg width="18" height="21" fill="none" xmlns="http://www.w3.org/2000/svg"><path d="M17.007 9.83c-.287 1.982-1.148 3.67-2.51 5.066-.79.734-1.507 1.542-2.296 2.276-1.148 1.248-2.296 2.57-3.443 3.818-2.44-2.57-4.806-4.773-7.03-7.196-1.29-1.468-1.793-3.377-1.721-5.36.071-4.259 3.3-7.93 7.316-8.37 4.52-.514 8.392 2.129 9.54 6.461.287.881.144 3.157.144 3.304zM8.543 11.59c1.506 0 2.797-1.248 2.797-2.79s-1.291-2.863-2.726-2.863c-1.434 0-2.797 1.321-2.797 2.79 0 1.542 1.22 2.864 2.726 2.864z" fill="#39CB59"/></svg>