<svg width="17" height="18" fill="none" xmlns="http://www.w3.org/2000/svg"><path d="M14.29 11.244c-.596-.653-1.37-.653-1.989 0l-1.393 1.47c-.129.135-.233.161-.387.083-.282-.188-.62-.324-.902-.518-1.344-.899-2.479-2.043-3.485-3.345-.491-.654-.928-1.333-1.24-2.123-.05-.162-.05-.245.08-.381.49-.465.927-.952 1.393-1.443.644-.68.644-1.469 0-2.148L5.256 1.668C4.869 1.26 4.507.852 4.121.47c-.595-.627-1.369-.627-1.988 0L.739 1.94a2.623 2.623 0 00-.723 1.63c-.08 1.01.153 1.987.49 2.938.7 1.987 1.755 3.701 3.02 5.306 1.73 2.18 3.793 3.895 6.197 5.118 1.086.544 2.196.978 3.381 1.061.853.052 1.577-.188 2.167-.873.387-.491.853-.899 1.264-1.359.62-.68.62-1.495 0-2.149l-2.246-2.368z" fill="#39CB59"/></svg>