<svg width="28" height="22" fill="none" xmlns="http://www.w3.org/2000/svg"><g clip-path="url(#clip0_260_4921)"><path d="M6.784 11.594a4.815 4.815 0 10-4.815-4.813 4.815 4.815 0 004.815 4.813z" fill="#F15207"/><path opacity=".25" d="M6.782 13.56a6.781 6.781 0 100-13.56 6.781 6.781 0 100 13.56z" fill="#F15207"/><path d="M26.438 10.237L22.33 5.725a2.089 2.089 0 00-3.484.907 2.096 2.096 0 00-2.75.19 2.059 2.059 0 00-.528.9 2.096 2.096 0 00-3.274 1.07l-1.946-1.93a2.089 2.089 0 00-2.956.005 2.086 2.086 0 000 2.95l7.438 7.44-4.41.692a2.446 2.446 0 00-2.09 2.412c0 .901.737 1.639 1.639 1.639h10.306a5.976 5.976 0 004.252-1.762l1.721-1.72a5.968 5.968 0 001.757-4.246 6.048 6.048 0 00-1.567-4.035zm-.973 7.513l-1.722 1.72a4.886 4.886 0 01-3.478 1.44H9.97a.549.549 0 01-.548-.549c0-.666.497-1.234 1.163-1.331l5.48-.86a.546.546 0 00.436-.37.55.55 0 00-.133-.552l-8.201-8.2a.997.997 0 01.005-1.413.994.994 0 01.702-.291c.256 0 .507.097.701.291L15.04 13.1a.544.544 0 00.932-.39.541.541 0 00-.158-.389l-2.234-2.233a.997.997 0 01.005-1.413.996.996 0 011.409 0l2.233 2.233a.544.544 0 00.933-.39.542.542 0 00-.159-.389l-1.142-1.142a.997.997 0 01.005-1.413.996.996 0 011.409 0l1.147 1.147a.546.546 0 00.763-.783l-.046-.047a.989.989 0 01.005-1.408.995.995 0 011.388-.02l4.093 4.496a4.895 4.895 0 011.276 3.303 4.843 4.843 0 01-1.434 3.488z" fill="#1C1C1C"/></g><defs><clipPath id="clip0_260_4921"><path fill="#fff" d="M0 0h28v22H0z"/></clipPath></defs></svg>