<svg width="90" height="90" fill="none" xmlns="http://www.w3.org/2000/svg"><rect width="90" height="90" rx="45" fill="#39CB59"/><path d="M61.1 46.749l-.914-4.55c-.248-1.28-.688-2.249-1.321-2.982-.825-.937-1.986-1.437-3.347-1.437h-3.764v-6.244c0-.859-.72-1.561-1.601-1.561h-3.524c-.88 0-1.601.702-1.601 1.56 0 .86.72 1.562 1.601 1.562h1.922v13.59H33.008c-.881 0-1.602.702-1.602 1.56 0 .86.721 1.554 1.602 1.554h27.058c1.514.172 2.73 1.374 2.73 2.896v4.059h-3.474c-.665-1.82-2.443-3.123-4.533-3.123-2.09 0-3.868 1.304-4.532 3.123h-9.914c-.665-1.82-2.442-3.123-4.533-3.123-2.09 0-3.867 1.304-4.524 3.123-1.706-.063-3.083-1.437-3.083-3.123v-13.59c0-.858-.72-1.56-1.601-1.56S25 39.185 25 40.043v13.59c0 3.404 2.803 6.174 6.278 6.245C31.935 61.697 33.721 63 35.81 63c2.09 0 3.868-1.303 4.533-3.122h9.922C50.929 61.697 52.707 63 54.797 63s3.868-1.303 4.533-3.122h5.068c.881 0 1.602-.703 1.602-1.561v-5.62c0-2.912-2.098-5.347-4.9-5.948zm-9.354-5.839h3.764c.488 0 1.16 0 1.53 1.882v.007l.784 3.887h-6.078V40.91zM35.81 59.878c-.88 0-1.601-.703-1.601-1.561 0-.859.72-1.561 1.601-1.561s1.602.702 1.602 1.56c0 .86-.72 1.562-1.602 1.562zm18.98 0c-.882 0-1.602-.703-1.602-1.561 0-.859.72-1.561 1.601-1.561.88 0 1.602.702 1.602 1.56 0 .86-.721 1.562-1.602 1.562z" fill="#fff"/><path d="M42.2 26.444l-1.305-1.202a.908.908 0 00-.64-.242.907.907 0 00-.64.242l-6.247 5.776-2.787-2.591a.907.907 0 00-.64-.242.908.908 0 00-.64.242l-1.306 1.202a.789.789 0 00-.008 1.186L31.43 34l1.297 1.202a.908.908 0 00.641.242.908.908 0 00.64-.242L35.307 34l6.887-6.37a.79.79 0 00.264-.593.81.81 0 00-.256-.593z" fill="#fff"/></svg>