<svg width="90" height="90" fill="none" xmlns="http://www.w3.org/2000/svg"><rect width="90" height="90" rx="45" fill="#39CB59"/><path d="M46.32 28.805H36.6v-1.201c0-.665-.536-1.202-1.2-1.202h-7.2c-.664 0-1.2.537-1.2 1.201v13.213c0 .665.536 1.202 1.2 1.202h7.2c.664 0 1.2-.537 1.2-1.202v-3.603h4.8v4.805c0 1.265 1.712 1.665 2.272.536a1.484 1.484 0 012.528-.208v4.636c0 .329.136.633.352.85L51 52.283v4.308c0 .664.536 1.201 1.2 1.201h1.2v6.006a1.199 1.199 0 102.4 0v-6.006H57c.664 0 1.2-.537 1.2-1.201v-4.308l4.448-4.453c.224-.224.352-.536.352-.849V30.006A6.005 6.005 0 0057 24h-4.8c-2.896 0-5.32 2.066-5.88 4.805zM29.4 39.615v-10.81h4.8v10.81h-4.8zm7.2-8.408h9.6v3.603h-9.6v-3.603zm7.2 8.312v-2.306h2.4v2.306a3.96 3.96 0 00-2.4 0zm9.6 15.872v-2.403h2.4v2.403h-2.4zm-.704-4.805l-2.4-2.402h8.608l-2.4 2.402h-3.808zM57 26.402c1.984 0 3.6 1.618 3.6 3.604V45.78h-12V30.006a3.607 3.607 0 013.6-3.604H57z" fill="#fff"/><path d="M51 30.006v2.402a1.199 1.199 0 102.4 0v-2.402a1.199 1.199 0 10-2.4 0zM55.8 30.006v2.402a1.199 1.199 0 102.4 0v-2.402a1.199 1.199 0 10-2.4 0zM50.648 62.95l-2.4-2.402a1.192 1.192 0 00-1.696 0 1.202 1.202 0 000 1.697l2.4 2.403a1.192 1.192 0 001.696 0 1.195 1.195 0 000-1.698zM62.648 62.245a1.195 1.195 0 000-1.697 1.199 1.199 0 00-1.696 0l-2.4 2.402a1.195 1.195 0 000 1.698 1.2 1.2 0 001.696 0l2.4-2.403zM42.478 50.444l-1.305-1.202a.908.908 0 00-.64-.242.908.908 0 00-.641.242l-6.247 5.776-2.786-2.591a.908.908 0 00-.64-.242.908.908 0 00-.642.242l-1.305 1.202a.789.789 0 00-.008 1.186L31.708 58l1.297 1.202a.908.908 0 00.64.242.907.907 0 00.641-.242L35.583 58l6.887-6.37a.79.79 0 00.264-.593.81.81 0 00-.256-.593z" fill="#fff"/></svg>