<svg width="90" height="90" fill="none" xmlns="http://www.w3.org/2000/svg"><rect width="90" height="90" rx="45" fill="#39CB59"/><path d="M63.398 53.107c.881 0 1.602-.72 1.602-1.601V29.004c0-.881-.72-1.602-1.602-1.602h-10.09c-.88 0-1.601.721-1.601 1.602v1.601H35.283v-4.003c0-.881-.72-1.602-1.602-1.602h-3.275A6.415 6.415 0 0024 31.406V54.71a6.415 6.415 0 006.406 6.406h8.489v3.283c0 .881.72 1.602 1.601 1.602h18.098A6.415 6.415 0 0065 59.594c0-.881-.72-1.602-1.602-1.602-.88 0-1.601.72-1.601 1.602 0 .296-.04.576-.112.849l-6.775-6.647v-4.132h2.483c.88 0 1.601-.72 1.601-1.602 0-.88-.72-1.601-1.601-1.601H54.91v-3.203h2.483c.88 0 1.601-.72 1.601-1.602 0-.88-.72-1.601-1.601-1.601H54.91v-3.203h2.483c.88 0 1.601-.721 1.601-1.602 0-.88-.72-1.602-1.601-1.602H54.91v-3.043h6.887v20.9c0 .882.72 1.602 1.601 1.602zm-36.195-21.7a3.202 3.202 0 013.203-3.204h1.674v19.94h-1.674c-1.169 0-2.258.312-3.203.856V31.406zm3.203 26.505a3.202 3.202 0 01-3.203-3.203v-.16a3.202 3.202 0 013.203-3.203h3.275c.881 0 1.602-.721 1.602-1.602V33.81h16.424v18.898h-11.21c-.882 0-1.602.72-1.602 1.602v3.603h-8.489zm11.692 4.885V55.91H45.3v2.483c0 .88.72 1.601 1.601 1.601s1.602-.72 1.602-1.601V55.91h3.988l6.91 6.783a3.342 3.342 0 01-.808.104H42.098z" fill="#fff"/></svg>