<svg width="90" height="90" fill="none" xmlns="http://www.w3.org/2000/svg"><rect width="90" height="90" rx="45" fill="#39CB59"/><path d="M56.85 44.577a4.574 4.574 0 00-4.57 4.57 4.574 4.574 0 004.57 4.57h6.474c.023 0 .053 0 .076-.007h.077c.837 0 1.523-.686 1.523-1.524V40.235a6.095 6.095 0 00-2.529-4.936l-5.18-8.5a1.511 1.511 0 00-.944-.686 1.513 1.513 0 00-1.158.19l-3.824 2.361-1.721-2.917a1.52 1.52 0 00-.945-.7 1.502 1.502 0 00-1.158.174l-14.678 8.92H30.57c-.83 0-1.5-.663-1.523-1.485a1.525 1.525 0 011.523-1.486h2.819c.838 0 1.523-.685 1.523-1.523 0-.838-.685-1.523-1.523-1.523H30.57a4.582 4.582 0 00-4.448 3.511 1.57 1.57 0 00-.122.602v25.67A6.102 6.102 0 0032.094 64h26.812a6.087 6.087 0 005.782-4.167c.266-.8-.168-1.66-.96-1.927-.8-.267-1.66.167-1.927.96a3.05 3.05 0 01-2.895 2.079H32.094a3.046 3.046 0 01-3.047-3.047V36.93c.48.168.99.259 1.523.259h28.336a3.046 3.046 0 013.047 3.047v4.342H56.85zm5.103 6.093H56.85a1.528 1.528 0 01-1.524-1.523c0-.838.686-1.523 1.524-1.523h5.103v3.046zM38.728 34.141l9.072-5.515 1.623 2.742c.03.077.068.153.114.221.03.054.069.107.107.153l1.416 2.4H38.728zm15.874 0l-1.683-2.849 2.575-1.592 2.712 4.449h-3.604v-.008z" fill="#fff"/></svg>