<svg width="52" height="52" fill="none" xmlns="http://www.w3.org/2000/svg"><rect x=".403" width="51.479" height="51.479" rx="25.739" fill="#746FBB"/><g clip-path="url(#clip0_4_1081)"><path d="M29.215 15.444h-4.863c-4.708 0-8.505 3.82-8.505 8.56v3.669c0 3.311 1.887 6.32 4.863 7.728V39.5c0 .206.189.396.427.396.095 0 .206-.039.283-.112l3.514-3.557h4.28c4.714 0 8.511-3.82 8.511-8.56v-3.669c0-4.735-3.797-8.554-8.51-8.554zm3.197 16.042l-1.215 1.223c-1.31 1.28-4.675-.19-7.65-3.233-2.976-3.043-4.297-6.488-3.043-7.767l1.216-1.223c.489-.452 1.255-.43 1.738.04l1.76 1.842a1.22 1.22 0 01-.04 1.714c-.133.134-.282.207-.449.285-.616.19-.933.787-.783 1.413.3 1.357 1.999 3.048 3.292 3.384.6.15 1.216-.19 1.422-.771.205-.603.877-.938 1.515-.732.189.056.339.19.489.302l1.76 1.843c.438.44.438 1.195-.012 1.68zm-4.54-10.23c-.134 0-.245 0-.356.04-.205.039-.427-.134-.45-.374-.022-.24.134-.43.356-.453.15-.039.3-.039.45-.039 2.242 0 4.04 1.843 4.074 4.065 0 .151 0 .302-.039.453-.039.206-.205.396-.45.357-.244-.04-.394-.207-.355-.452 0-.134.04-.246.04-.358a3.286 3.286 0 00-3.27-3.238zm2.43 3.273c-.038.206-.205.396-.449.357-.189-.039-.355-.19-.355-.357 0-.883-.727-1.62-1.61-1.62-.206.04-.428-.15-.45-.374-.039-.206.15-.43.356-.452h.055a2.415 2.415 0 012.454 2.446zm3.104 1.295a.433.433 0 01-.45.34c-.205-.016-.355-.245-.338-.451v-.056a4.39 4.39 0 00.133-1.128c0-2.692-2.187-4.892-4.863-4.892h-.355c-.206.04-.428-.15-.428-.374-.039-.207.15-.43.355-.43.15 0 .3-.039.428-.039 3.125 0 5.685 2.558 5.685 5.718a7.38 7.38 0 01-.167 1.312z" fill="#fff"/></g><defs><clipPath id="clip0_4_1081"><path fill="#fff" transform="translate(15.847 15.444)" d="M0 0h21.878v24.453H0z"/></clipPath></defs></svg>