<svg width="53" height="52" fill="none" xmlns="http://www.w3.org/2000/svg"><rect x=".701" width="51.479" height="51.479" rx="25.739" fill="#39CB59"/><g clip-path="url(#clip0_4_1072)"><path d="M26.44 14.414c-6.252 0-11.325 5.073-11.325 11.326 0 2.503.81 4.81 2.181 6.687l-1.443 4.27 4.5-1.404a11.3 11.3 0 006.088 1.772c6.252 0 11.325-5.073 11.325-11.325 0-6.253-5.073-11.326-11.325-11.326zm5.186 17.4c-2.056.824-4.507.026-7.188-2.01-2.682-2.035-4.447-4.901-4.566-7.03-.119-2.127 1.614-3.201 2.556-3.194.942.006 1.977 3.017 1.99 3.478.013.468-1.153 1.298-1.2 1.693-.045.396 1.589 2.346 2.28 2.873.686.52 2.102 1.522 2.833 1.43.725-.1 1.206-1.555 1.667-1.647.461-.093 2.978 1.16 3.229 1.482.25.33.224 2.2-1.601 2.925z" fill="#fff"/></g><defs><clipPath id="clip0_4_1072"><path fill="#fff" transform="translate(15.115 14.414)" d="M0 0h22.651v22.651H0z"/></clipPath></defs></svg>