<svg width="28" height="27" fill="none" xmlns="http://www.w3.org/2000/svg"><path fill-rule="evenodd" clip-rule="evenodd" d="M14.528 2.98c2.503 0 4.828.877 6.616 2.63 1.788 1.754 2.682 4.033 2.682 6.487 0 .877.715 1.578 1.61 1.578.893 0 1.609-.701 1.609-1.578 0-3.155-1.252-6.311-3.577-8.59C21.145 1.226 17.925 0 14.528 0c-.715 0-1.43.701-1.43 1.578 0 .701.715 1.403 1.43 1.403z" fill="#fff"/><path fill-rule="evenodd" clip-rule="evenodd" d="M14.528 8.416c2.146 0 3.934 1.753 3.934 3.857 0 .876.715 1.578 1.61 1.578.893 0 1.608-.702 1.608-1.578-.178-3.857-3.218-7.013-7.152-7.013-.715 0-1.43.701-1.43 1.578 0 .701.536 1.402 1.43 1.578zM7.555 10.87c-.716.526-.894 1.403-.358 2.104.536.701 1.43.877 2.146.35 1.073-.525 1.788-1.753 1.788-2.98-.358-1.402-.894-2.63-1.788-3.506-.716-1.228-1.788-2.104-3.04-2.806a2.7 2.7 0 00-2.325 0c-1.43.526-2.86 1.578-3.576 2.981-.536 1.403-.536 2.98 0 4.208a27.67 27.67 0 006.259 9.292c2.682 2.63 5.9 4.734 9.476 5.961.716.35 1.61.526 2.325.526.715 0 1.43-.175 2.146-.35 1.43-.702 2.503-1.93 2.86-3.332a4.907 4.907 0 000-2.279c-.715-1.227-1.609-2.28-2.86-2.805-1.073-.877-2.325-1.403-3.755-1.754-1.252 0-2.504.702-3.04 1.754-.537.701-.358 1.578.357 2.104.716.526 1.61.35 2.146-.351.358-.526.358-.701.537-.701 1.43.701 2.682 1.578 3.755 2.805v.175c-.18.702-.716 1.228-1.252 1.578-.715.175-1.252.175-1.967 0-3.04-1.402-6.08-3.156-8.404-5.435-2.324-2.454-4.291-5.26-5.543-8.24-.358-.701-.358-1.403-.179-1.929.358-.701 1.073-1.052 1.788-1.227h.18c1.072.877 2.145 2.104 2.86 3.507-.179.175-.358.35-.536.35z" fill="#fff"/></svg>